<?xml version="1.0" standalone="no"?>
<!DOCTYPE svg PUBLIC "-//W3C//DTD SVG 20010904//EN"
 "http://www.w3.org/TR/2001/REC-SVG-20010904/DTD/svg10.dtd">
<svg version="1.0" xmlns="http://www.w3.org/2000/svg"
 width="81.000000pt" height="81.000000pt" viewBox="0 0 81.000000 81.000000"
 preserveAspectRatio="xMidYMid meet">
<metadata>
Created by potrace 1.14, written by Peter Selinger 2001-2017
</metadata>
<g transform="translate(0.000000,81.000000) scale(0.100000,-0.100000)"
fill="#000000" stroke="none">
<path d="M0 405 l0 -405 405 0 405 0 0 405 0 405 -405 0 -405 0 0 -405z m444
237 c14 -27 11 -33 -80 -192 -86 -151 -97 -181 -60 -167 7 3 48 68 91 146 43
78 81 141 84 141 6 0 190 -306 199 -331 2 -5 -60 -9 -137 -9 l-141 0 12 25
c11 24 16 25 90 25 43 0 78 4 78 9 0 13 -93 171 -100 171 -3 0 -33 -52 -68
-114 l-63 -115 -62 -6 c-34 -4 -74 -5 -89 -3 -27 3 -27 3 100 225 70 123 128
223 129 223 1 0 9 -13 17 -28z"/>
</g>
</svg>
