<svg xmlns="http://www.w3.org/2000/svg">
    <symbol id="page_logo" viewBox="0 0 241 54">
        <defs>
        <style>
        .cls-1 {
            fill: #fff;
            fill-rule: evenodd;
        }
        </style>
        </defs>
        <path id="Logo" class="cls-1" d="M237.919,101.4l28.619-.252-20.555-35.19-16.792,29.93-4.52.04,19.305-33.566-3.229-5.527L215,101.6l17.439-.153L246.08,77.136l10.81,18.508-16.649.146Zm44.757,5.589L251.367,53.225l0.37-.219,31.31,53.763Zm2.808-33.178V73.759a9.528,9.528,0,0,1,19.055-.052v0.052A9.528,9.528,0,0,1,285.484,73.811Zm14.051,0V73.759a4.672,4.672,0,0,0-4.549-4.912,4.582,4.582,0,0,0-4.473,4.859v0.052a4.667,4.667,0,0,0,4.524,4.912A4.586,4.586,0,0,0,299.535,73.811Zm10.089-9.147H314.2l7.278,9.615V64.664h4.852V82.854h-4.3l-7.556-9.979v9.979h-4.852V64.664Zm26.691,4.418h-5.307V64.664h15.517v4.418h-5.307V82.854h-4.9V69.081Zm14.99-4.418h4.929V82.854h-4.929V64.664Zm10.086,9.147V73.759a9.216,9.216,0,0,1,9.325-9.459,8.589,8.589,0,0,1,7.506,3.794l-3.69,2.936a4.7,4.7,0,0,0-3.866-2.131c-2.476,0-4.22,2.157-4.22,4.807v0.052c0,2.729,1.744,4.86,4.22,4.86a4.8,4.8,0,0,0,3.993-2.209l3.69,2.7a8.857,8.857,0,0,1-7.835,4.106A9.112,9.112,0,0,1,361.391,73.811Zm21.586-9.147h14.229v4.288H387.83v2.754h8.491v3.976H387.83v2.885h9.5v4.288H382.977V64.664Zm19.388,0h4.9V78.437h8.567v4.418h-13.47V64.664Zm18.1,0h4.9V78.437h8.568v4.418h-13.47V64.664Zm16.481,9.147V73.759A9.528,9.528,0,0,1,456,73.707v0.052A9.528,9.528,0,0,1,436.945,73.811Zm14.051,0V73.759a4.672,4.672,0,0,0-4.549-4.912,4.582,4.582,0,0,0-4.473,4.859v0.052a4.667,4.667,0,0,0,4.524,4.912A4.586,4.586,0,0,0,451,73.811ZM266.424,78.482V72.459l4.5,7.069h0.1l4.524-7.121V82.854h4.877V64.664h-5.181l-4.22,7.042-4.22-7.042h-5.181v5.574Zm20.07,14.225h0.678v6.061h-0.678V92.707Zm5.875,0h0.636l3.786,4.857V92.707h0.661v6.061h-0.541L293.03,93.8v4.97h-0.661V92.707Zm11.811,0.631h-2.018V92.707h4.722v0.631h-2.018v5.429H304.18V93.338Zm7.414-.631h4.345V93.33h-3.666V95.4h3.279v0.623h-3.279v2.121h3.708v0.624h-4.387V92.707Zm9.191,0h2.585a2.358,2.358,0,0,1,1.708.606,1.685,1.685,0,0,1,.463,1.194v0.017a1.767,1.767,0,0,1-1.63,1.766l1.845,2.477h-0.833l-1.742-2.355h-1.717v2.355h-0.679V92.707Zm2.524,3.091a1.335,1.335,0,0,0,1.545-1.246V94.533a1.279,1.279,0,0,0-1.536-1.2h-1.854V95.8h1.845Zm7.123-3.091h0.636l3.786,4.857V92.707h0.661v6.061h-0.541l-3.881-4.97v4.97h-0.661V92.707Zm12.446-.044h0.635l2.739,6.1h-0.73l-0.7-1.6h-3.271l-0.713,1.6h-0.695Zm1.674,3.888-1.365-3.092-1.374,3.092h2.739Zm7.14-3.213h-2.018V92.707H354.4v0.631h-2.018v5.429h-0.686V93.338Zm7.475-.631h0.677v6.061h-0.677V92.707Zm5.609,3.047V95.737a3.066,3.066,0,1,1,6.13-.018v0.018A3.066,3.066,0,1,1,364.776,95.754Zm5.426,0V95.737a2.4,2.4,0,0,0-2.37-2.5,2.372,2.372,0,0,0-2.352,2.485v0.018a2.4,2.4,0,0,0,2.37,2.5A2.372,2.372,0,0,0,370.2,95.754Zm5.577-3.047h0.636l3.786,4.857V92.707h0.661v6.061h-0.541L376.44,93.8v4.97h-0.661V92.707Zm12.446-.044h0.636l2.738,6.1H390.87l-0.7-1.6H386.9l-0.713,1.6h-0.695Zm1.675,3.888-1.366-3.092-1.373,3.092H389.9Zm6.324-3.844H396.9v5.428h3.382v0.633h-4.061V92.707Zm14.5,3.047V95.737a3.03,3.03,0,0,1,3.013-3.135,3.146,3.146,0,0,1,2.24.806l-0.437.519a2.549,2.549,0,0,0-1.828-.692,2.359,2.359,0,0,0-2.285,2.485v0.018a2.334,2.334,0,0,0,2.379,2.519,2.817,2.817,0,0,0,1.734-.606V96.143h-1.828V95.529h2.48v2.415a3.621,3.621,0,0,1-2.413.926A2.959,2.959,0,0,1,410.725,95.754Zm10.436-3.047h2.585a2.358,2.358,0,0,1,1.708.606,1.682,1.682,0,0,1,.464,1.194v0.017a1.767,1.767,0,0,1-1.631,1.766l1.845,2.477H425.3l-1.742-2.355H421.84v2.355h-0.679V92.707Zm2.524,3.091a1.336,1.336,0,0,0,1.546-1.246V94.533a1.28,1.28,0,0,0-1.537-1.2H421.84V95.8h1.845Zm6.857-.044V95.737a3.065,3.065,0,1,1,6.129-.018v0.018A3.065,3.065,0,1,1,430.542,95.754Zm5.425,0V95.737a2.4,2.4,0,0,0-2.369-2.5,2.372,2.372,0,0,0-2.353,2.485v0.018a2.4,2.4,0,0,0,2.37,2.5A2.372,2.372,0,0,0,435.967,95.754Zm5.484,0.476V92.707h0.678v3.48a1.777,1.777,0,0,0,1.837,2.043,1.736,1.736,0,0,0,1.812-2V92.707h0.678v3.472A2.507,2.507,0,1,1,441.451,96.231Zm10.05-3.523h2.25A1.961,1.961,0,0,1,456,94.629v0.017a2.078,2.078,0,0,1-2.361,1.983H452.18v2.139H451.5V92.707Zm2.164,3.3a1.429,1.429,0,0,0,1.648-1.334V94.655a1.362,1.362,0,0,0-1.614-1.316H452.18V96h1.485Z" transform="translate(-215 -53)"/>
    </symbol>
    <symbol id="facebook" viewBox="0 0 310 310">
        <g id="XMLID_834_">
	        <path id="XMLID_835_" d="M81.703,165.106h33.981V305c0,2.762,2.238,5,5,5h57.616c2.762,0,5-2.238,5-5V165.765h39.064
            c2.54,0,4.677-1.906,4.967-4.429l5.933-51.502c0.163-1.417-0.286-2.836-1.234-3.899c-0.949-1.064-2.307-1.673-3.732-1.673h-44.996
            V71.978c0-9.732,5.24-14.667,15.576-14.667c1.473,0,29.42,0,29.42,0c2.762,0,5-2.239,5-5V5.037c0-2.762-2.238-5-5-5h-40.545
            C187.467,0.023,186.832,0,185.896,0c-7.035,0-31.488,1.381-50.804,19.151c-21.402,19.692-18.427,43.27-17.716,47.358v37.752H81.703
            c-2.762,0-5,2.238-5,5v50.844C76.703,162.867,78.941,165.106,81.703,165.106z"/>
        </g>
    </symbol>
    <symbol id="twitter" viewBox="0 0 310 310">
        <g id="XMLID_826_">
            <path id="XMLID_827_" d="M302.973,57.388c-4.87,2.16-9.877,3.983-14.993,5.463c6.057-6.85,10.675-14.91,13.494-23.73
                c0.632-1.977-0.023-4.141-1.648-5.434c-1.623-1.294-3.878-1.449-5.665-0.39c-10.865,6.444-22.587,11.075-34.878,13.783
                c-12.381-12.098-29.197-18.983-46.581-18.983c-36.695,0-66.549,29.853-66.549,66.547c0,2.89,0.183,5.764,0.545,8.598
                C101.163,99.244,58.83,76.863,29.76,41.204c-1.036-1.271-2.632-1.956-4.266-1.825c-1.635,0.128-3.104,1.05-3.93,2.467
                c-5.896,10.117-9.013,21.688-9.013,33.461c0,16.035,5.725,31.249,15.838,43.137c-3.075-1.065-6.059-2.396-8.907-3.977
                c-1.529-0.851-3.395-0.838-4.914,0.033c-1.52,0.871-2.473,2.473-2.513,4.224c-0.007,0.295-0.007,0.59-0.007,0.889
                c0,23.935,12.882,45.484,32.577,57.229c-1.692-0.169-3.383-0.414-5.063-0.735c-1.732-0.331-3.513,0.276-4.681,1.597
                c-1.17,1.32-1.557,3.16-1.018,4.84c7.29,22.76,26.059,39.501,48.749,44.605c-18.819,11.787-40.34,17.961-62.932,17.961
                c-4.714,0-9.455-0.277-14.095-0.826c-2.305-0.274-4.509,1.087-5.294,3.279c-0.785,2.193,0.047,4.638,2.008,5.895
                c29.023,18.609,62.582,28.445,97.047,28.445c67.754,0,110.139-31.95,133.764-58.753c29.46-33.421,46.356-77.658,46.356-121.367
                c0-1.826-0.028-3.67-0.084-5.508c11.623-8.757,21.63-19.355,29.773-31.536c1.237-1.85,1.103-4.295-0.33-5.998
                C307.394,57.037,305.009,56.486,302.973,57.388z"/>
        </g>
    </symbol>
    <symbol id="instagram" viewBox="0 0 169.063 169.063">
        <g>
        <path d="M122.406,0H46.654C20.929,0,0,20.93,0,46.655v75.752c0,25.726,20.929,46.655,46.654,46.655h75.752
            c25.727,0,46.656-20.93,46.656-46.655V46.655C169.063,20.93,148.133,0,122.406,0z M154.063,122.407
            c0,17.455-14.201,31.655-31.656,31.655H46.654C29.2,154.063,15,139.862,15,122.407V46.655C15,29.201,29.2,15,46.654,15h75.752
            c17.455,0,31.656,14.201,31.656,31.655V122.407z"/>
        <path d="M84.531,40.97c-24.021,0-43.563,19.542-43.563,43.563c0,24.02,19.542,43.561,43.563,43.561s43.563-19.541,43.563-43.561
            C128.094,60.512,108.552,40.97,84.531,40.97z M84.531,113.093c-15.749,0-28.563-12.812-28.563-28.561
            c0-15.75,12.813-28.563,28.563-28.563s28.563,12.813,28.563,28.563C113.094,100.281,100.28,113.093,84.531,113.093z"/>
        <path d="M129.921,28.251c-2.89,0-5.729,1.17-7.77,3.22c-2.051,2.04-3.23,4.88-3.23,7.78c0,2.891,1.18,5.73,3.23,7.78
            c2.04,2.04,4.88,3.22,7.77,3.22c2.9,0,5.73-1.18,7.78-3.22c2.05-2.05,3.22-4.89,3.22-7.78c0-2.9-1.17-5.74-3.22-7.78
            C135.661,29.421,132.821,28.251,129.921,28.251z"/>
        </g>
    </symbol>
    <symbol id="location" viewBox="0 0 466.583 466.582">
        <g>
	    <path d="M233.292,0c-85.1,0-154.334,69.234-154.334,154.333c0,34.275,21.887,90.155,66.908,170.834
            c31.846,57.063,63.168,104.643,64.484,106.64l22.942,34.775l22.941-34.774c1.317-1.998,32.641-49.577,64.483-106.64
            c45.023-80.68,66.908-136.559,66.908-170.834C387.625,69.234,318.391,0,233.292,0z M233.292,233.291c-44.182,0-80-35.817-80-80
            s35.818-80,80-80c44.182,0,80,35.817,80,80S277.473,233.291,233.292,233.291z"/>
        </g>
    </symbol>
    <symbol id="phone" viewBox="0 0 53.942 53.942">
        <path d="M53.364,40.908c-2.008-3.796-8.981-7.912-9.288-8.092c-0.896-0.51-1.831-0.78-2.706-0.78c-1.301,0-2.366,0.596-3.011,1.68
            c-1.02,1.22-2.285,2.646-2.592,2.867c-2.376,1.612-4.236,1.429-6.294-0.629L17.987,24.467c-2.045-2.045-2.233-3.928-0.632-6.291
            c0.224-0.309,1.65-1.575,2.87-2.596c0.778-0.463,1.312-1.151,1.546-1.995c0.311-1.123,0.082-2.444-0.652-3.731
            c-0.173-0.296-4.291-7.27-8.085-9.277c-0.708-0.375-1.506-0.573-2.306-0.573c-1.318,0-2.558,0.514-3.49,1.445L4.7,3.986
            c-4.014,4.013-5.467,8.562-4.321,13.52c0.956,4.132,3.742,8.529,8.282,13.068l14.705,14.705c5.746,5.746,11.224,8.66,16.282,8.66
            c0,0,0,0,0.001,0c3.72,0,7.188-1.581,10.305-4.698l2.537-2.537C54.033,45.163,54.383,42.833,53.364,40.908z"/>
        <g>
        </g>
    </symbol>
    <symbol id="inbox" viewBox="0 0 26.667 26.668">
        <g>
            <path d="M26.65,14.965c0.031-0.264-0.004-0.533-0.113-0.785l-5-11.168c-0.242-0.539-0.779-0.887-1.369-0.887H6.5
                c-0.591,0-1.127,0.348-1.369,0.887l-5,11.168c-0.112,0.252-0.146,0.521-0.115,0.785C0.01,15.02,0,15.07,0,15.125v7.918
                c0,0.828,0.671,1.5,1.5,1.5h23.667c0.828,0,1.5-0.672,1.5-1.5v-7.918C26.667,15.07,26.658,15.02,26.65,14.965z M17.417,19.543H9.25
                v-6.25H3.815l3.657-8.168h11.725l3.656,8.168h-5.436V19.543L17.417,19.543z"/>
        </g>
    </symbol>
    <symbol id="clock" viewBox="0 0 300.988 300.988">
        <g>
            <g>
                <path d="M150.494,0.001C67.511,0.001,0,67.512,0,150.495s67.511,150.493,150.494,150.493s150.494-67.511,150.494-150.493
                    S233.476,0.001,150.494,0.001z M150.494,285.987C75.782,285.987,15,225.206,15,150.495S75.782,15.001,150.494,15.001
                    s135.494,60.782,135.494,135.493S225.205,285.987,150.494,285.987z"/>
                <polygon points="142.994,142.995 83.148,142.995 83.148,157.995 157.994,157.995 157.994,43.883 142.994,43.883 		"/>
            </g>
            <g>
            </g>
            <g>
            </g>
            <g>
            </g>
            <g>
            </g>
            <g>
            </g>
            <g>
            </g>
            <g>
            </g>
            <g>
            </g>
            <g>
            </g>
            <g>
            </g>
            <g>
            </g>
            <g>
            </g>
            <g>
            </g>
            <g>
            </g>
            <g>
            </g>
        </g>
    </symbol>
</svg>